<svg width="6" height="7" viewBox="0 0 6 7" fill="none" xmlns="http://www.w3.org/2000/svg">
<path d="M5.94499 0.452235L5.945 5.32278L5.36375 5.31006C5.24213 5.30723 5.15728 5.27046 5.1092 5.19975C5.05828 5.12621 5.03283 5.03287 5.03283 4.91973L5.03707 2.66689C5.03707 2.38971 5.0498 2.14788 5.07526 1.9414C4.94232 2.11393 4.79807 2.2893 4.64251 2.46749C4.48694 2.64568 4.32007 2.82387 4.14187 3.00206L0.825562 6.31836L0.0703717 5.56317L3.38668 2.24687C3.56488 2.06868 3.74307 1.9018 3.92126 1.74624C4.10228 1.58785 4.28047 1.4436 4.45583 1.31349C4.24653 1.33612 4.00187 1.34884 3.72185 1.35167L1.45204 1.35592C1.3389 1.35592 1.24698 1.33187 1.17627 1.28379C1.10273 1.23288 1.06455 1.14661 1.06172 1.02499L1.04899 0.443748L5.94499 0.452235Z" fill="black"/>
</svg>
