<svg width="1379" height="55" viewBox="0 0 1379 55" fill="none" xmlns="http://www.w3.org/2000/svg">
<rect x="0.5" y="0.5" width="1378" height="54" fill="#F2F2F2" stroke="#D7D7D7"/>
<rect x="1264.5" y="7.5" width="107" height="40" stroke="#D7D7D7"/>
<path d="M1288.08 30.152C1288.15 30.152 1288.21 30.18 1288.27 30.236L1288.77 30.788C1288.42 31.204 1287.99 31.526 1287.48 31.754C1286.98 31.982 1286.37 32.096 1285.66 32.096C1285.03 32.096 1284.47 31.988 1283.96 31.772C1283.45 31.556 1283.02 31.254 1282.66 30.866C1282.31 30.478 1282.03 30.014 1281.83 29.474C1281.64 28.934 1281.54 28.34 1281.54 27.692C1281.54 27.044 1281.64 26.45 1281.85 25.91C1282.05 25.37 1282.34 24.906 1282.72 24.518C1283.09 24.13 1283.53 23.828 1284.05 23.612C1284.57 23.396 1285.14 23.288 1285.77 23.288C1286.38 23.288 1286.93 23.388 1287.4 23.588C1287.88 23.788 1288.29 24.054 1288.64 24.386L1288.22 24.98C1288.2 25.024 1288.16 25.06 1288.12 25.088C1288.08 25.116 1288.02 25.13 1287.95 25.13C1287.88 25.13 1287.79 25.092 1287.68 25.016C1287.58 24.94 1287.45 24.856 1287.28 24.764C1287.12 24.668 1286.91 24.582 1286.67 24.506C1286.43 24.43 1286.12 24.392 1285.76 24.392C1285.33 24.392 1284.94 24.468 1284.58 24.62C1284.23 24.768 1283.92 24.984 1283.66 25.268C1283.4 25.548 1283.2 25.894 1283.06 26.306C1282.92 26.714 1282.85 27.176 1282.85 27.692C1282.85 28.216 1282.92 28.682 1283.07 29.09C1283.22 29.498 1283.42 29.844 1283.68 30.128C1283.94 30.412 1284.25 30.628 1284.6 30.776C1284.95 30.924 1285.33 30.998 1285.74 30.998C1285.99 30.998 1286.21 30.984 1286.41 30.956C1286.61 30.924 1286.79 30.878 1286.95 30.818C1287.12 30.758 1287.28 30.682 1287.43 30.59C1287.57 30.494 1287.72 30.38 1287.86 30.248C1287.9 30.22 1287.93 30.198 1287.97 30.182C1288 30.162 1288.04 30.152 1288.08 30.152ZM1297.92 27.692C1297.92 28.336 1297.81 28.928 1297.61 29.468C1297.4 30.004 1297.11 30.468 1296.74 30.86C1296.36 31.248 1295.91 31.55 1295.39 31.766C1294.86 31.982 1294.28 32.09 1293.64 32.09C1293 32.09 1292.42 31.982 1291.89 31.766C1291.37 31.55 1290.92 31.248 1290.54 30.86C1290.17 30.468 1289.88 30.004 1289.67 29.468C1289.47 28.928 1289.36 28.336 1289.36 27.692C1289.36 27.052 1289.47 26.462 1289.67 25.922C1289.88 25.382 1290.17 24.918 1290.54 24.53C1290.92 24.138 1291.37 23.834 1291.89 23.618C1292.42 23.398 1293 23.288 1293.64 23.288C1294.28 23.288 1294.86 23.398 1295.39 23.618C1295.91 23.834 1296.36 24.138 1296.74 24.53C1297.11 24.918 1297.4 25.382 1297.61 25.922C1297.81 26.462 1297.92 27.052 1297.92 27.692ZM1296.61 27.692C1296.61 27.18 1296.54 26.72 1296.4 26.312C1296.26 25.904 1296.06 25.558 1295.8 25.274C1295.54 24.99 1295.23 24.772 1294.86 24.62C1294.5 24.468 1294.09 24.392 1293.64 24.392C1293.19 24.392 1292.78 24.468 1292.41 24.62C1292.05 24.772 1291.73 24.99 1291.47 25.274C1291.21 25.558 1291.01 25.904 1290.87 26.312C1290.73 26.72 1290.66 27.18 1290.66 27.692C1290.66 28.208 1290.73 28.67 1290.87 29.078C1291.01 29.482 1291.21 29.826 1291.47 30.11C1291.73 30.394 1292.05 30.612 1292.41 30.764C1292.78 30.912 1293.19 30.986 1293.64 30.986C1294.09 30.986 1294.5 30.912 1294.86 30.764C1295.23 30.612 1295.54 30.394 1295.8 30.11C1296.06 29.826 1296.26 29.482 1296.4 29.078C1296.54 28.67 1296.61 28.208 1296.61 27.692ZM1306.58 23.384V32H1305.93C1305.83 32 1305.75 31.982 1305.68 31.946C1305.61 31.91 1305.55 31.852 1305.48 31.772L1300.61 25.478C1300.62 25.586 1300.63 25.692 1300.63 25.796C1300.64 25.9 1300.64 25.998 1300.64 26.09V32H1299.52V23.384H1300.18C1300.29 23.384 1300.38 23.398 1300.43 23.426C1300.49 23.45 1300.55 23.508 1300.62 23.6L1305.5 29.9C1305.49 29.784 1305.48 29.672 1305.47 29.564C1305.46 29.452 1305.46 29.348 1305.46 29.252V23.384H1306.58ZM1314.58 24.452H1311.85V32H1310.58V24.452H1307.83V23.384H1314.58V24.452ZM1319.56 28.79L1318.28 25.448C1318.19 25.22 1318.1 24.932 1318 24.584C1317.96 24.756 1317.91 24.916 1317.87 25.064C1317.82 25.212 1317.78 25.344 1317.73 25.46L1316.46 28.79H1319.56ZM1322.08 32H1321.1C1320.99 32 1320.9 31.972 1320.82 31.916C1320.75 31.86 1320.7 31.788 1320.67 31.7L1319.91 29.702H1316.11L1315.35 31.7C1315.32 31.776 1315.27 31.846 1315.19 31.91C1315.11 31.97 1315.02 32 1314.91 32H1313.93L1317.36 23.384H1318.65L1322.08 32ZM1328.94 30.152C1329.02 30.152 1329.08 30.18 1329.13 30.236L1329.63 30.788C1329.28 31.204 1328.85 31.526 1328.34 31.754C1327.84 31.982 1327.23 32.096 1326.52 32.096C1325.9 32.096 1325.33 31.988 1324.82 31.772C1324.32 31.556 1323.89 31.254 1323.53 30.866C1323.17 30.478 1322.89 30.014 1322.7 29.474C1322.5 28.934 1322.4 28.34 1322.4 27.692C1322.4 27.044 1322.51 26.45 1322.71 25.91C1322.92 25.37 1323.21 24.906 1323.58 24.518C1323.95 24.13 1324.4 23.828 1324.91 23.612C1325.43 23.396 1326.01 23.288 1326.63 23.288C1327.25 23.288 1327.79 23.388 1328.27 23.588C1328.74 23.788 1329.16 24.054 1329.51 24.386L1329.09 24.98C1329.06 25.024 1329.02 25.06 1328.98 25.088C1328.94 25.116 1328.89 25.13 1328.82 25.13C1328.74 25.13 1328.65 25.092 1328.55 25.016C1328.45 24.94 1328.31 24.856 1328.15 24.764C1327.98 24.668 1327.78 24.582 1327.53 24.506C1327.29 24.43 1326.99 24.392 1326.62 24.392C1326.19 24.392 1325.8 24.468 1325.45 24.62C1325.09 24.768 1324.78 24.984 1324.52 25.268C1324.27 25.548 1324.07 25.894 1323.92 26.306C1323.78 26.714 1323.71 27.176 1323.71 27.692C1323.71 28.216 1323.79 28.682 1323.93 29.09C1324.08 29.498 1324.29 29.844 1324.55 30.128C1324.81 30.412 1325.11 30.628 1325.46 30.776C1325.82 30.924 1326.2 30.998 1326.6 30.998C1326.85 30.998 1327.07 30.984 1327.27 30.956C1327.47 30.924 1327.65 30.878 1327.82 30.818C1327.98 30.758 1328.14 30.682 1328.29 30.59C1328.44 30.494 1328.58 30.38 1328.73 30.248C1328.76 30.22 1328.79 30.198 1328.83 30.182C1328.87 30.162 1328.9 30.152 1328.94 30.152ZM1336.79 24.452H1334.06V32H1332.78V24.452H1330.04V23.384H1336.79V24.452Z" fill="#222222"/>
<path d="M1359.94 25.4522L1359.94 30.3228L1359.36 30.3101C1359.24 30.3072 1359.16 30.2705 1359.11 30.1998C1359.06 30.1262 1359.03 30.0329 1359.03 29.9197L1359.04 27.6669C1359.04 27.3897 1359.05 27.1479 1359.08 26.9414C1358.94 27.1139 1358.8 27.2893 1358.64 27.4675C1358.49 27.6457 1358.32 27.8239 1358.14 28.0021L1354.83 31.3184L1354.07 30.5632L1357.39 27.2469C1357.56 27.0687 1357.74 26.9018 1357.92 26.7463C1358.1 26.5879 1358.28 26.4436 1358.46 26.3135C1358.25 26.3361 1358 26.3489 1357.72 26.3517L1355.45 26.3559C1355.34 26.3559 1355.25 26.3319 1355.18 26.2838C1355.1 26.2329 1355.06 26.1466 1355.06 26.025L1355.05 25.4438L1359.94 25.4522Z" fill="black"/>
<path d="M63.043 34.0884C63.6427 34.0884 64.1783 33.9873 64.65 33.7852C65.1216 33.5831 65.5192 33.3001 65.8426 32.9362C66.1728 32.5724 66.4221 32.1378 66.5905 31.6324C66.7657 31.1271 66.8533 30.5712 66.8533 29.9648V21.1617H68.8039V29.9648C68.8039 30.8003 68.6692 31.5752 68.3996 32.2894C68.1369 33.0036 67.7562 33.6235 67.2576 34.149C66.7657 34.6679 66.1627 35.0755 65.4484 35.372C64.7342 35.6684 63.9324 35.8167 63.043 35.8167C62.1536 35.8167 61.3518 35.6684 60.6376 35.372C59.9233 35.0755 59.3169 34.6679 58.8183 34.149C58.3197 33.6235 57.9357 33.0036 57.6661 32.2894C57.4034 31.5752 57.272 30.8003 57.272 29.9648V21.1617H59.2226V29.9547C59.2226 30.5611 59.3068 31.117 59.4753 31.6223C59.6505 32.1277 59.8998 32.5623 60.2232 32.9261C60.5533 33.29 60.9542 33.5763 61.4259 33.7852C61.9043 33.9873 62.4433 34.0884 63.043 34.0884Z" fill="#222222"/>
<path d="M54.4527 28.6812V34.24C53.725 34.7656 52.9468 35.1597 52.118 35.4225C51.296 35.6786 50.3931 35.8066 49.4094 35.8066C48.2437 35.8066 47.1926 35.628 46.2561 35.2709C45.3195 34.9071 44.5177 34.4017 43.8506 33.7549C43.1903 33.1013 42.6816 32.3197 42.3245 31.4101C41.9674 30.5005 41.7888 29.4999 41.7888 28.4083C41.7888 27.3033 41.9606 26.296 42.3043 25.3864C42.6546 24.4768 43.1499 23.6985 43.79 23.0517C44.4301 22.3981 45.2083 21.8928 46.1247 21.5357C47.041 21.1786 48.0652 21 49.1972 21C49.7699 21 50.3022 21.0438 50.794 21.1314C51.2859 21.2122 51.7407 21.3335 52.1585 21.4952C52.5762 21.6502 52.9637 21.8422 53.3208 22.0713C53.6779 22.2937 54.0114 22.5464 54.3213 22.8293L53.7655 23.7188C53.6779 23.8535 53.5633 23.9411 53.4218 23.9815C53.2871 24.0152 53.1355 23.9815 52.967 23.8805C52.8053 23.7861 52.62 23.6716 52.4111 23.5368C52.2023 23.4021 51.9462 23.274 51.643 23.1528C51.3466 23.0247 50.9928 22.9169 50.5818 22.8293C50.1775 22.7418 49.6958 22.698 49.1365 22.698C48.3212 22.698 47.5834 22.8327 46.9231 23.1022C46.2628 23.365 45.7002 23.7457 45.2353 24.2443C44.7703 24.7362 44.4132 25.3359 44.1639 26.0433C43.9146 26.7441 43.79 27.5324 43.79 28.4083C43.79 29.318 43.918 30.1332 44.174 30.8542C44.4368 31.5684 44.8074 32.1782 45.2858 32.6835C45.7709 33.1822 46.3571 33.5628 47.0444 33.8256C47.7317 34.0884 48.5032 34.2198 49.3589 34.2198C50.0327 34.2198 50.629 34.1457 51.1478 33.9974C51.6733 33.8425 52.1854 33.6302 52.684 33.3607V30.177H50.4302C50.3022 30.177 50.1977 30.14 50.1169 30.0659C50.0428 29.9918 50.0057 29.9008 50.0057 29.793V28.6812H54.4527Z" fill="#222222"/>
<path d="M37.075 30.268L34.8009 24.3757C34.7336 24.2005 34.6628 23.9984 34.5887 23.7693C34.5146 23.5335 34.4438 23.2842 34.3764 23.0214C34.2349 23.5671 34.0901 24.022 33.9418 24.3858L31.6678 30.268H37.075ZM41.1582 35.6449H39.6421C39.4669 35.6449 39.3254 35.6011 39.2176 35.5135C39.1098 35.4259 39.029 35.3147 38.9751 35.18L37.6207 31.683H31.122L29.7677 35.18C29.7273 35.3012 29.6498 35.409 29.5352 35.5034C29.4207 35.5977 29.2792 35.6449 29.1108 35.6449H27.5947L33.386 21.1617H35.3669L41.1582 35.6449Z" fill="#222222"/>
<path d="M17.9506 27.5088H18.6884C18.9445 27.5088 19.15 27.4785 19.3049 27.4179C19.4599 27.3505 19.6014 27.2393 19.7294 27.0843L24.5504 21.6266C24.6852 21.4514 24.8267 21.3302 24.9749 21.2628C25.1231 21.1954 25.3051 21.1617 25.5207 21.1617H27.1782L21.6599 27.3977C21.5251 27.5594 21.3937 27.6941 21.2657 27.8019C21.1444 27.903 21.013 27.9872 20.8715 28.0546C21.0534 28.1152 21.2185 28.2062 21.3668 28.3275C21.515 28.442 21.6599 28.5936 21.8013 28.7823L27.5623 35.6449H25.8643C25.7363 35.6449 25.6251 35.6381 25.5308 35.6247C25.4432 35.6044 25.3657 35.5775 25.2983 35.5438C25.2309 35.5034 25.1703 35.4596 25.1164 35.4124C25.0692 35.3585 25.0221 35.2979 24.9749 35.2305L19.9821 29.4797C19.8474 29.3112 19.7025 29.1933 19.5475 29.1259C19.3925 29.0518 19.1567 29.0148 18.84 29.0148H17.9506V35.6449H16V21.1617H17.9506V27.5088Z" fill="#222222"/>
<path d="M546.58 29.255L545.089 25.356C544.982 25.09 544.874 24.754 544.767 24.348C544.716 24.5487 544.662 24.7353 544.606 24.908C544.555 25.0807 544.503 25.2347 544.452 25.37L542.968 29.255H546.58ZM549.527 33H548.379C548.248 33 548.141 32.9673 548.057 32.902C547.973 32.8367 547.912 32.7527 547.875 32.65L546.986 30.319H542.555L541.666 32.65C541.633 32.7387 541.573 32.8203 541.484 32.895C541.395 32.965 541.288 33 541.162 33H540.014L544.018 22.948H545.523L549.527 33ZM554.373 31.817C554.751 31.817 555.073 31.7727 555.339 31.684C555.61 31.5953 555.829 31.474 555.997 31.32C556.17 31.166 556.296 30.984 556.375 30.774C556.454 30.5593 556.494 30.326 556.494 30.074C556.494 29.5747 556.321 29.1827 555.976 28.898C555.631 28.6087 555.096 28.464 554.373 28.464H552.273V31.817H554.373ZM552.273 24.117V27.407H553.988C554.721 27.407 555.264 27.26 555.619 26.966C555.978 26.6673 556.158 26.266 556.158 25.762C556.158 25.188 555.988 24.7703 555.647 24.509C555.306 24.2477 554.777 24.117 554.058 24.117H552.273ZM554.058 22.948C554.688 22.948 555.227 23.0087 555.675 23.13C556.128 23.2513 556.499 23.4263 556.788 23.655C557.077 23.8837 557.29 24.1613 557.425 24.488C557.565 24.81 557.635 25.1763 557.635 25.587C557.635 25.8297 557.598 26.063 557.523 26.287C557.448 26.511 557.334 26.721 557.18 26.917C557.026 27.1083 556.832 27.281 556.599 27.435C556.366 27.589 556.09 27.7173 555.773 27.82C557.234 28.1093 557.964 28.8723 557.964 30.109C557.964 30.5383 557.885 30.9303 557.726 31.285C557.567 31.635 557.336 31.9383 557.033 32.195C556.73 32.4517 556.356 32.65 555.913 32.79C555.47 32.93 554.966 33 554.401 33H550.782V22.948H554.058ZM569.24 27.974C569.24 28.7253 569.118 29.416 568.876 30.046C568.638 30.6713 568.299 31.2127 567.861 31.67C567.422 32.1227 566.897 32.475 566.286 32.727C565.674 32.979 564.995 33.105 564.249 33.105C563.507 33.105 562.828 32.979 562.212 32.727C561.6 32.475 561.075 32.1227 560.637 31.67C560.203 31.2127 559.864 30.6713 559.622 30.046C559.379 29.416 559.258 28.7253 559.258 27.974C559.258 27.2273 559.379 26.539 559.622 25.909C559.864 25.279 560.203 24.7377 560.637 24.285C561.075 23.8277 561.6 23.473 562.212 23.221C562.828 22.9643 563.507 22.836 564.249 22.836C564.995 22.836 565.674 22.9643 566.286 23.221C566.897 23.473 567.422 23.8277 567.861 24.285C568.299 24.7377 568.638 25.279 568.876 25.909C569.118 26.539 569.24 27.2273 569.24 27.974ZM567.714 27.974C567.714 27.3767 567.632 26.84 567.469 26.364C567.305 25.888 567.072 25.4843 566.769 25.153C566.47 24.8217 566.106 24.5673 565.677 24.39C565.252 24.2127 564.776 24.124 564.249 24.124C563.721 24.124 563.243 24.2127 562.814 24.39C562.389 24.5673 562.025 24.8217 561.722 25.153C561.418 25.4843 561.185 25.888 561.022 26.364C560.858 26.84 560.777 27.3767 560.777 27.974C560.777 28.576 560.858 29.115 561.022 29.591C561.185 30.0623 561.418 30.4637 561.722 30.795C562.025 31.1263 562.389 31.3807 562.814 31.558C563.243 31.7307 563.721 31.817 564.249 31.817C564.776 31.817 565.252 31.7307 565.677 31.558C566.106 31.3807 566.47 31.1263 566.769 30.795C567.072 30.4637 567.305 30.0623 567.469 29.591C567.632 29.115 567.714 28.576 567.714 27.974ZM575.032 31.803C575.433 31.803 575.793 31.7353 576.11 31.6C576.427 31.4647 576.696 31.2757 576.915 31.033C577.134 30.7857 577.302 30.494 577.419 30.158C577.536 29.8173 577.594 29.4417 577.594 29.031V22.948H579.078V29.031C579.078 29.619 578.985 30.1627 578.798 30.662C578.611 31.1613 578.343 31.593 577.993 31.957C577.643 32.321 577.218 32.6057 576.719 32.811C576.22 33.0163 575.657 33.119 575.032 33.119C574.407 33.119 573.844 33.0163 573.345 32.811C572.846 32.6057 572.421 32.321 572.071 31.957C571.721 31.593 571.453 31.1613 571.266 30.662C571.079 30.1627 570.986 29.619 570.986 29.031V22.948H572.477V29.024C572.477 29.4347 572.533 29.8103 572.645 30.151C572.762 30.4917 572.93 30.7857 573.149 31.033C573.368 31.2757 573.637 31.4647 573.954 31.6C574.271 31.7353 574.631 31.803 575.032 31.803ZM588.287 24.194H585.095V33H583.611V24.194H580.405V22.948H588.287V24.194Z" fill="#222222"/>
<path d="M611.737 24.159V27.526H615.769V28.737H611.737V33H610.239V22.948H616.469V24.159H611.737ZM624.392 31.789L624.385 33H618.155V22.948H624.385V24.159H619.653V27.344H623.461V28.513H619.653V31.789H624.392ZM631.576 29.255L630.085 25.356C629.978 25.09 629.87 24.754 629.763 24.348C629.712 24.5487 629.658 24.7353 629.602 24.908C629.551 25.0807 629.499 25.2347 629.448 25.37L627.964 29.255H631.576ZM634.523 33H633.375C633.244 33 633.137 32.9673 633.053 32.902C632.969 32.8367 632.908 32.7527 632.871 32.65L631.982 30.319H627.551L626.662 32.65C626.629 32.7387 626.569 32.8203 626.48 32.895C626.391 32.965 626.284 33 626.158 33H625.01L629.014 22.948H630.519L634.523 33ZM641.647 24.194H638.455V33H636.971V24.194H633.765V22.948H641.647V24.194ZM647.013 31.803C647.414 31.803 647.773 31.7353 648.091 31.6C648.408 31.4647 648.676 31.2757 648.896 31.033C649.115 30.7857 649.283 30.494 649.4 30.158C649.516 29.8173 649.575 29.4417 649.575 29.031V22.948H651.059V29.031C651.059 29.619 650.965 30.1627 650.779 30.662C650.592 31.1613 650.324 31.593 649.974 31.957C649.624 32.321 649.199 32.6057 648.7 32.811C648.2 33.0163 647.638 33.119 647.013 33.119C646.387 33.119 645.825 33.0163 645.326 32.811C644.826 32.6057 644.402 32.321 644.052 31.957C643.702 31.593 643.433 31.1613 643.247 30.662C643.06 30.1627 642.967 29.619 642.967 29.031V22.948H644.458V29.024C644.458 29.4347 644.514 29.8103 644.626 30.151C644.742 30.4917 644.91 30.7857 645.13 31.033C645.349 31.2757 645.617 31.4647 645.935 31.6C646.252 31.7353 646.611 31.803 647.013 31.803ZM656.264 27.792C656.646 27.792 656.982 27.7453 657.272 27.652C657.566 27.5587 657.811 27.428 658.007 27.26C658.203 27.0873 658.35 26.8843 658.448 26.651C658.546 26.413 658.595 26.1517 658.595 25.867C658.595 25.2883 658.403 24.852 658.021 24.558C657.643 24.264 657.073 24.117 656.313 24.117H654.906V27.792H656.264ZM660.954 33H659.624C659.358 33 659.164 32.895 659.043 32.685L656.558 29.199C656.478 29.0823 656.392 29.0007 656.299 28.954C656.205 28.9027 656.065 28.877 655.879 28.877H654.906V33H653.415V22.948H656.313C656.961 22.948 657.519 23.0157 657.986 23.151C658.457 23.2817 658.844 23.4707 659.148 23.718C659.456 23.9607 659.682 24.2547 659.827 24.6C659.976 24.9453 660.051 25.3327 660.051 25.762C660.051 26.112 659.997 26.441 659.89 26.749C659.782 27.057 659.624 27.3347 659.414 27.582C659.208 27.8247 658.956 28.0347 658.658 28.212C658.359 28.3893 658.021 28.5247 657.643 28.618C657.829 28.73 657.99 28.8863 658.126 29.087L660.954 33ZM668.484 31.789L668.477 33H662.247V22.948H668.477V24.159H663.745V27.344H667.553V28.513H663.745V31.789H668.484Z" fill="#222222"/>
<path d="M787.443 28.107V32.027C786.934 32.391 786.393 32.664 785.819 32.846C785.245 33.0233 784.62 33.112 783.943 33.112C783.131 33.112 782.396 32.986 781.738 32.734C781.085 32.482 780.527 32.1297 780.065 31.677C779.603 31.2243 779.246 30.683 778.994 30.053C778.747 29.423 778.623 28.73 778.623 27.974C778.623 27.2133 778.742 26.518 778.98 25.888C779.223 25.2533 779.568 24.712 780.016 24.264C780.464 23.8113 781.005 23.4613 781.64 23.214C782.279 22.962 782.996 22.836 783.789 22.836C784.19 22.836 784.561 22.8663 784.902 22.927C785.247 22.9877 785.567 23.074 785.861 23.186C786.155 23.298 786.426 23.4333 786.673 23.592C786.925 23.746 787.158 23.921 787.373 24.117L786.946 24.789C786.881 24.8963 786.794 24.964 786.687 24.992C786.58 25.02 786.463 24.9943 786.337 24.915C786.216 24.845 786.08 24.7633 785.931 24.67C785.786 24.5767 785.611 24.4903 785.406 24.411C785.205 24.3317 784.97 24.264 784.699 24.208C784.428 24.152 784.109 24.124 783.74 24.124C783.189 24.124 782.692 24.215 782.249 24.397C781.806 24.5743 781.428 24.831 781.115 25.167C780.802 25.503 780.562 25.909 780.394 26.385C780.226 26.8563 780.142 27.386 780.142 27.974C780.142 28.59 780.231 29.143 780.408 29.633C780.585 30.1183 780.835 30.5313 781.157 30.872C781.484 31.208 781.878 31.4647 782.34 31.642C782.807 31.8193 783.327 31.908 783.901 31.908C784.125 31.908 784.333 31.8963 784.524 31.873C784.72 31.845 784.907 31.8077 785.084 31.761C785.261 31.7143 785.432 31.656 785.595 31.586C785.763 31.516 785.929 31.439 786.092 31.355V29.248H784.608C784.515 29.248 784.438 29.22 784.377 29.164C784.321 29.108 784.293 29.038 784.293 28.954V28.107H787.443ZM794.697 29.255L793.206 25.356C793.099 25.09 792.992 24.754 792.884 24.348C792.833 24.5487 792.779 24.7353 792.723 24.908C792.672 25.0807 792.621 25.2347 792.569 25.37L791.085 29.255H794.697ZM797.644 33H796.496C796.366 33 796.258 32.9673 796.174 32.902C796.09 32.8367 796.03 32.7527 795.992 32.65L795.103 30.319H790.672L789.783 32.65C789.751 32.7387 789.69 32.8203 789.601 32.895C789.513 32.965 789.405 33 789.279 33H788.131L792.135 22.948H793.64L797.644 33ZM804.653 31.747V33H798.899V22.948H800.39V31.747H804.653ZM811.858 31.747V33H806.104V22.948H807.595V31.747H811.858ZM819.546 31.789L819.539 33H813.309V22.948H819.539V24.159H814.807V27.344H818.615V28.513H814.807V31.789H819.546ZM824.238 27.792C824.621 27.792 824.957 27.7453 825.246 27.652C825.54 27.5587 825.785 27.428 825.981 27.26C826.177 27.0873 826.324 26.8843 826.422 26.651C826.52 26.413 826.569 26.1517 826.569 25.867C826.569 25.2883 826.378 24.852 825.995 24.558C825.617 24.264 825.048 24.117 824.287 24.117H822.88V27.792H824.238ZM828.928 33H827.598C827.332 33 827.139 32.895 827.017 32.685L824.532 29.199C824.453 29.0823 824.367 29.0007 824.273 28.954C824.18 28.9027 824.04 28.877 823.853 28.877H822.88V33H821.389V22.948H824.287C824.936 22.948 825.494 23.0157 825.96 23.151C826.432 23.2817 826.819 23.4707 827.122 23.718C827.43 23.9607 827.657 24.2547 827.801 24.6C827.951 24.9453 828.025 25.3327 828.025 25.762C828.025 26.112 827.972 26.441 827.864 26.749C827.757 27.057 827.598 27.3347 827.388 27.582C827.183 27.8247 826.931 28.0347 826.632 28.212C826.334 28.3893 825.995 28.5247 825.617 28.618C825.804 28.73 825.965 28.8863 826.1 29.087L828.928 33ZM833.724 29.024V33H832.24V29.024L828.558 22.948H829.867C829.998 22.948 830.103 22.9807 830.182 23.046C830.262 23.1067 830.327 23.1883 830.378 23.291L832.562 27.05C832.651 27.2227 832.73 27.386 832.8 27.54C832.875 27.694 832.94 27.8457 832.996 27.995C833.048 27.8457 833.106 27.694 833.171 27.54C833.241 27.386 833.321 27.2227 833.409 27.05L835.586 23.291C835.633 23.207 835.696 23.13 835.775 23.06C835.859 22.9853 835.964 22.948 836.09 22.948H837.406L833.724 29.024Z" fill="#222222"/>
<path d="M694.284 28.121C694.662 28.121 694.993 28.072 695.278 27.974C695.567 27.876 695.808 27.7383 695.999 27.561C696.195 27.379 696.342 27.1643 696.44 26.917C696.538 26.665 696.587 26.3873 696.587 26.084C696.587 25.4727 696.396 24.992 696.013 24.642C695.635 24.292 695.059 24.117 694.284 24.117H692.73V28.121H694.284ZM694.284 22.948C694.928 22.948 695.488 23.0227 695.964 23.172C696.44 23.3213 696.834 23.5337 697.147 23.809C697.46 24.0797 697.691 24.4087 697.84 24.796C697.994 25.1833 698.071 25.6127 698.071 26.084C698.071 26.5553 697.989 26.9893 697.826 27.386C697.663 27.778 697.422 28.1163 697.105 28.401C696.788 28.6857 696.391 28.9073 695.915 29.066C695.444 29.22 694.9 29.297 694.284 29.297H692.73V33H691.239V22.948H694.284ZM702.565 27.792C702.947 27.792 703.283 27.7453 703.573 27.652C703.867 27.5587 704.112 27.428 704.308 27.26C704.504 27.0873 704.651 26.8843 704.749 26.651C704.847 26.413 704.896 26.1517 704.896 25.867C704.896 25.2883 704.704 24.852 704.322 24.558C703.944 24.264 703.374 24.117 702.614 24.117H701.207V27.792H702.565ZM707.255 33H705.925C705.659 33 705.465 32.895 705.344 32.685L702.859 29.199C702.779 29.0823 702.693 29.0007 702.6 28.954C702.506 28.9027 702.366 28.877 702.18 28.877H701.207V33H699.716V22.948H702.614C703.262 22.948 703.82 23.0157 704.287 23.151C704.758 23.2817 705.145 23.4707 705.449 23.718C705.757 23.9607 705.983 24.2547 706.128 24.6C706.277 24.9453 706.352 25.3327 706.352 25.762C706.352 26.112 706.298 26.441 706.191 26.749C706.083 27.057 705.925 27.3347 705.715 27.582C705.509 27.8247 705.257 28.0347 704.959 28.212C704.66 28.3893 704.322 28.5247 703.944 28.618C704.13 28.73 704.291 28.8863 704.427 29.087L707.255 33ZM717.804 27.974C717.804 28.7253 717.683 29.416 717.44 30.046C717.202 30.6713 716.864 31.2127 716.425 31.67C715.987 32.1227 715.462 32.475 714.85 32.727C714.239 32.979 713.56 33.105 712.813 33.105C712.071 33.105 711.392 32.979 710.776 32.727C710.165 32.475 709.64 32.1227 709.201 31.67C708.767 31.2127 708.429 30.6713 708.186 30.046C707.944 29.416 707.822 28.7253 707.822 27.974C707.822 27.2273 707.944 26.539 708.186 25.909C708.429 25.279 708.767 24.7377 709.201 24.285C709.64 23.8277 710.165 23.473 710.776 23.221C711.392 22.9643 712.071 22.836 712.813 22.836C713.56 22.836 714.239 22.9643 714.85 23.221C715.462 23.473 715.987 23.8277 716.425 24.285C716.864 24.7377 717.202 25.279 717.44 25.909C717.683 26.539 717.804 27.2273 717.804 27.974ZM716.278 27.974C716.278 27.3767 716.197 26.84 716.033 26.364C715.87 25.888 715.637 25.4843 715.333 25.153C715.035 24.8217 714.671 24.5673 714.241 24.39C713.817 24.2127 713.341 24.124 712.813 24.124C712.286 24.124 711.808 24.2127 711.378 24.39C710.954 24.5673 710.59 24.8217 710.286 25.153C709.983 25.4843 709.75 25.888 709.586 26.364C709.423 26.84 709.341 27.3767 709.341 27.974C709.341 28.576 709.423 29.115 709.586 29.591C709.75 30.0623 709.983 30.4637 710.286 30.795C710.59 31.1263 710.954 31.3807 711.378 31.558C711.808 31.7307 712.286 31.817 712.813 31.817C713.341 31.817 713.817 31.7307 714.241 31.558C714.671 31.3807 715.035 31.1263 715.333 30.795C715.637 30.4637 715.87 30.0623 716.033 29.591C716.197 29.115 716.278 28.576 716.278 27.974ZM728.448 27.974C728.448 28.7253 728.326 29.409 728.084 30.025C727.846 30.641 727.507 31.1707 727.069 31.614C726.63 32.0527 726.105 32.3933 725.494 32.636C724.882 32.8787 724.203 33 723.457 33H719.677V22.948H723.457C724.203 22.948 724.882 23.0693 725.494 23.312C726.105 23.5547 726.63 23.8977 727.069 24.341C727.507 24.7797 727.846 25.3093 728.084 25.93C728.326 26.546 728.448 27.2273 728.448 27.974ZM726.922 27.974C726.922 27.3767 726.84 26.8423 726.677 26.371C726.513 25.895 726.28 25.4937 725.977 25.167C725.678 24.8357 725.314 24.5837 724.885 24.411C724.46 24.2383 723.984 24.152 723.457 24.152H721.175V31.796H723.457C723.984 31.796 724.46 31.7097 724.885 31.537C725.314 31.3643 725.678 31.1147 725.977 30.788C726.28 30.4567 726.513 30.0553 726.677 29.584C726.84 29.1127 726.922 28.576 726.922 27.974ZM734.247 31.803C734.648 31.803 735.008 31.7353 735.325 31.6C735.642 31.4647 735.911 31.2757 736.13 31.033C736.349 30.7857 736.517 30.494 736.634 30.158C736.751 29.8173 736.809 29.4417 736.809 29.031V22.948H738.293V29.031C738.293 29.619 738.2 30.1627 738.013 30.662C737.826 31.1613 737.558 31.593 737.208 31.957C736.858 32.321 736.433 32.6057 735.934 32.811C735.435 33.0163 734.872 33.119 734.247 33.119C733.622 33.119 733.059 33.0163 732.56 32.811C732.061 32.6057 731.636 32.321 731.286 31.957C730.936 31.593 730.668 31.1613 730.481 30.662C730.294 30.1627 730.201 29.619 730.201 29.031V22.948H731.692V29.024C731.692 29.4347 731.748 29.8103 731.86 30.151C731.977 30.4917 732.145 30.7857 732.364 31.033C732.583 31.2757 732.852 31.4647 733.169 31.6C733.486 31.7353 733.846 31.803 734.247 31.803ZM747.67 30.844C747.754 30.844 747.826 30.8767 747.887 30.942L748.475 31.586C748.064 32.0713 747.563 32.447 746.97 32.713C746.382 32.979 745.673 33.112 744.842 33.112C744.114 33.112 743.454 32.986 742.861 32.734C742.273 32.482 741.769 32.1297 741.349 31.677C740.934 31.2243 740.612 30.683 740.383 30.053C740.154 29.423 740.04 28.73 740.04 27.974C740.04 27.218 740.159 26.525 740.397 25.895C740.64 25.265 740.978 24.7237 741.412 24.271C741.846 23.8183 742.364 23.466 742.966 23.214C743.573 22.962 744.242 22.836 744.975 22.836C745.689 22.836 746.324 22.9527 746.879 23.186C747.434 23.4193 747.917 23.7297 748.328 24.117L747.838 24.81C747.805 24.8613 747.763 24.9033 747.712 24.936C747.665 24.9687 747.602 24.985 747.523 24.985C747.434 24.985 747.329 24.9407 747.208 24.852C747.091 24.7633 746.935 24.6653 746.739 24.558C746.548 24.446 746.31 24.3457 746.025 24.257C745.74 24.1683 745.386 24.124 744.961 24.124C744.462 24.124 744.004 24.2127 743.589 24.39C743.174 24.5627 742.814 24.8147 742.511 25.146C742.212 25.4727 741.979 25.8763 741.811 26.357C741.648 26.833 741.566 27.372 741.566 27.974C741.566 28.5853 741.652 29.129 741.825 29.605C741.998 30.081 742.236 30.4847 742.539 30.816C742.842 31.1473 743.199 31.3993 743.61 31.572C744.021 31.7447 744.464 31.831 744.94 31.831C745.229 31.831 745.488 31.8147 745.717 31.782C745.95 31.7447 746.163 31.691 746.354 31.621C746.55 31.551 746.734 31.4623 746.907 31.355C747.08 31.243 747.25 31.11 747.418 30.956C747.455 30.9233 747.495 30.8977 747.537 30.879C747.579 30.8557 747.623 30.844 747.67 30.844ZM756.826 24.194H753.634V33H752.15V24.194H748.944V22.948H756.826V24.194Z" fill="#222222"/>
</svg>
