<svg width="680" height="192" viewBox="0 0 680 192" fill="none" xmlns="http://www.w3.org/2000/svg">
<path d="M605.883 168.98C613.597 168.98 620.486 167.68 626.553 165.08C632.62 162.48 637.733 158.84 641.893 154.16C646.14 149.48 649.347 143.89 651.513 137.39C653.767 130.89 654.893 123.74 654.893 115.94V2.70996H679.983V115.94C679.983 126.687 678.25 136.653 674.783 145.84C671.403 155.027 666.507 163 660.093 169.76C653.767 176.433 646.01 181.677 636.823 185.49C627.637 189.303 617.323 191.21 605.883 191.21C594.443 191.21 584.13 189.303 574.943 185.49C565.757 181.677 557.957 176.433 551.543 169.76C545.13 163 540.19 155.027 536.723 145.84C533.343 136.653 531.653 126.687 531.653 115.94V2.70996H556.743V115.81C556.743 123.61 557.826 130.76 559.993 137.26C562.246 143.76 565.453 149.35 569.613 154.03C573.86 158.71 579.017 162.393 585.083 165.08C591.237 167.68 598.17 168.98 605.883 168.98Z" fill="white"/>
<path d="M495.391 99.43V170.93C486.031 177.69 476.021 182.76 465.361 186.14C454.788 189.433 443.175 191.08 430.521 191.08C415.528 191.08 402.008 188.783 389.961 184.19C377.915 179.51 367.601 173.01 359.021 164.69C350.528 156.283 343.985 146.23 339.391 134.53C334.798 122.83 332.501 109.96 332.501 95.92C332.501 81.7067 334.711 68.75 339.131 57.05C343.638 45.35 350.008 35.34 358.241 27.02C366.475 18.6134 376.485 12.1133 388.271 7.52002C400.058 2.92668 413.231 0.630005 427.791 0.630005C435.158 0.630005 442.005 1.19334 448.331 2.32001C454.658 3.36001 460.508 4.92001 465.881 7.00001C471.255 8.99334 476.238 11.4633 480.831 14.41C485.425 17.27 489.715 20.52 493.701 24.16L486.551 35.6C485.425 37.3333 483.951 38.46 482.131 38.98C480.398 39.4134 478.448 38.98 476.281 37.68C474.201 36.4667 471.818 34.9933 469.131 33.26C466.445 31.5267 463.151 29.88 459.251 28.32C455.438 26.6733 450.888 25.2867 445.601 24.16C440.401 23.0334 434.205 22.47 427.011 22.47C416.525 22.47 407.035 24.2034 398.541 27.67C390.048 31.05 382.811 35.9467 376.831 42.36C370.851 48.6867 366.258 56.4 363.051 65.5C359.845 74.5134 358.241 84.6534 358.241 95.92C358.241 107.62 359.888 118.107 363.181 127.38C366.561 136.567 371.328 144.41 377.481 150.91C383.721 157.323 391.261 162.22 400.101 165.6C408.941 168.98 418.865 170.67 429.871 170.67C438.538 170.67 446.208 169.717 452.881 167.81C459.641 165.817 466.228 163.087 472.641 159.62V118.67H443.651C442.005 118.67 440.661 118.193 439.621 117.24C438.668 116.287 438.191 115.117 438.191 113.73V99.43H495.391Z" fill="white"/>
<path d="M271.868 119.84L242.618 44.05C241.752 41.7966 240.842 39.1966 239.888 36.25C238.935 33.2166 238.025 30.01 237.158 26.63C235.338 33.65 233.475 39.5 231.568 44.18L202.318 119.84H271.868ZM324.388 189H304.888C302.635 189 300.815 188.437 299.428 187.31C298.042 186.183 297.002 184.753 296.308 183.02L278.888 138.04H195.298L177.878 183.02C177.358 184.58 176.362 185.967 174.888 187.18C173.415 188.393 171.595 189 169.428 189H149.928L224.418 2.70996H249.898L324.388 189Z" fill="white"/>
<path d="M25.88 84.35H35.37C38.6634 84.35 41.3067 83.96 43.3 83.18C45.2934 82.3133 47.1134 80.8833 48.76 78.89L110.77 8.68996C112.503 6.43662 114.323 4.87662 116.23 4.00996C118.137 3.14329 120.477 2.70996 123.25 2.70996H144.57L73.59 82.92C71.8567 85 70.1667 86.7333 68.52 88.12C66.96 89.42 65.27 90.5033 63.45 91.37C65.79 92.15 67.9134 93.32 69.82 94.88C71.7267 96.3533 73.59 98.3033 75.41 100.73L149.51 189H127.67C126.023 189 124.593 188.913 123.38 188.74C122.253 188.48 121.257 188.133 120.39 187.7C119.523 187.18 118.743 186.617 118.05 186.01C117.443 185.317 116.837 184.537 116.23 183.67L52.01 109.7C50.2767 107.533 48.4134 106.017 46.42 105.15C44.4267 104.197 41.3934 103.72 37.32 103.72H25.88V189H0.790039V2.70996H25.88V84.35Z" fill="white"/>
</svg>
