<svg width="33" height="10" viewBox="0 0 33 10" fill="none" xmlns="http://www.w3.org/2000/svg">
<path d="M29.3996 8.17962C29.7743 8.17962 30.1091 8.11646 30.4039 7.99013C30.6986 7.8638 30.9471 7.68695 31.1492 7.45956C31.3555 7.23217 31.5113 6.96057 31.6166 6.64476C31.7261 6.32894 31.7808 5.98154 31.7808 5.60257V0.101061H32.9999V5.60257C32.9999 6.12471 32.9157 6.60896 32.7472 7.05532C32.583 7.50167 32.3451 7.88907 32.0335 8.21752C31.7261 8.54175 31.3492 8.79651 30.9029 8.98179C30.4565 9.16707 29.9554 9.25971 29.3996 9.25971C28.8437 9.25971 28.3427 9.16707 27.8963 8.98179C27.4499 8.79651 27.071 8.54175 26.7594 8.21752C26.4478 7.88907 26.2077 7.50167 26.0393 7.05532C25.8751 6.60896 25.793 6.12471 25.793 5.60257V0.101061H27.012V5.59625C27.012 5.97523 27.0647 6.32262 27.1699 6.63844C27.2794 6.95425 27.4352 7.22586 27.6373 7.45324C27.8437 7.68063 28.0942 7.85959 28.389 7.99013C28.6879 8.11646 29.0248 8.17962 29.3996 8.17962Z" fill="#222222"/>
<path d="M24.031 4.8004V8.27437C23.5763 8.60281 23.0899 8.84915 22.572 9.01337C22.0582 9.17339 21.494 9.25339 20.8792 9.25339C20.1507 9.25339 19.4938 9.1418 18.9085 8.91863C18.3232 8.69124 17.8221 8.37543 17.4052 7.97118C16.9926 7.56273 16.6746 7.07427 16.4515 6.5058C16.2283 5.93733 16.1167 5.31202 16.1167 4.62985C16.1167 3.93927 16.2241 3.30975 16.4388 2.74128C16.6578 2.17281 16.9673 1.68645 17.3673 1.28221C17.7674 0.873756 18.2537 0.557941 18.8264 0.334765C19.3991 0.111588 20.0391 0 20.7466 0C21.1045 0 21.4371 0.0273707 21.7445 0.0821121C22.0519 0.132643 22.3362 0.208439 22.5972 0.309499C22.8583 0.406349 23.1004 0.526359 23.3236 0.669529C23.5468 0.808488 23.7552 0.966396 23.9489 1.14325L23.6015 1.69909C23.5468 1.7833 23.4752 1.83805 23.3868 1.86331C23.3026 1.88437 23.2078 1.86331 23.1025 1.80015C23.0015 1.7412 22.8857 1.66961 22.7551 1.58539C22.6246 1.50118 22.4646 1.42117 22.2751 1.34537C22.0898 1.26537 21.8688 1.19799 21.6119 1.14325C21.3592 1.08851 21.0582 1.06114 20.7087 1.06114C20.1991 1.06114 19.738 1.14536 19.3254 1.31379C18.9127 1.47802 18.5611 1.71593 18.2706 2.02754C17.98 2.33493 17.7568 2.7097 17.601 3.15184C17.4452 3.58977 17.3673 4.08244 17.3673 4.62985C17.3673 5.19832 17.4473 5.70784 17.6073 6.1584C17.7716 6.60475 18.0032 6.98584 18.3021 7.30165C18.6053 7.61326 18.9717 7.85117 19.4012 8.0154C19.8307 8.17962 20.3128 8.26173 20.8476 8.26173C21.2687 8.26173 21.6414 8.21541 21.9656 8.12277C22.294 8.02592 22.6141 7.89328 22.9257 7.72485V5.73521H21.5171C21.4371 5.73521 21.3719 5.71205 21.3213 5.66573C21.275 5.61941 21.2519 5.56256 21.2519 5.49519V4.8004H24.031Z" fill="#222222"/>
<path d="M13.1708 5.79205L11.7496 2.10965C11.7075 2.00016 11.6633 1.87384 11.617 1.73067C11.5707 1.58329 11.5264 1.42749 11.4843 1.26326C11.3959 1.60434 11.3054 1.88858 11.2127 2.11596L9.79157 5.79205H13.1708ZM15.7226 9.15233H14.7751C14.6657 9.15233 14.5772 9.12496 14.5098 9.07022C14.4425 9.01548 14.3919 8.946 14.3583 8.86178L13.5119 6.67634H9.45049L8.6041 8.86178C8.57884 8.93757 8.53041 9.00495 8.45882 9.0639C8.38724 9.12285 8.29881 9.15233 8.19354 9.15233H7.24609L10.8653 0.101061H12.1033L15.7226 9.15233Z" fill="#222222"/>
<path d="M1.21905 4.0677H1.68014C1.84015 4.0677 1.96858 4.04875 2.06543 4.01086C2.16228 3.96875 2.25071 3.89927 2.33072 3.80242L5.3436 0.391611C5.42781 0.282128 5.51624 0.206333 5.60888 0.164224C5.70152 0.122115 5.81521 0.101061 5.94996 0.101061H6.98584L3.53713 3.99822C3.45291 4.09928 3.3708 4.1835 3.2908 4.25087C3.215 4.31404 3.13289 4.36667 3.04446 4.40878C3.15815 4.44668 3.26132 4.50353 3.35396 4.57932C3.4466 4.65091 3.53713 4.74565 3.62556 4.86356L7.22586 9.15233H6.16472C6.08471 9.15233 6.01523 9.14812 5.95628 9.1397C5.90154 9.12706 5.85311 9.11022 5.811 9.08917C5.76889 9.0639 5.731 9.03653 5.69731 9.00705C5.66783 8.97337 5.63836 8.93547 5.60888 8.89336L2.48863 5.29938C2.40441 5.19411 2.31387 5.12042 2.21702 5.07831C2.12017 5.03199 1.97279 5.00883 1.77488 5.00883H1.21905V9.15233H0V0.101061H1.21905V4.0677Z" fill="#222222"/>
</svg>
