<svg width="250" height="70" viewBox="0 0 250 70" fill="none" xmlns="http://www.w3.org/2000/svg">
<path d="M222.006 61.7665C224.836 61.7665 227.364 61.2895 229.59 60.3356C231.816 59.3817 233.692 58.0462 235.218 56.3291C236.776 54.612 237.953 52.5611 238.748 50.1762C239.574 47.7914 239.988 45.1681 239.988 42.3063V0.762695H249.193V42.3063C249.193 46.2492 248.557 49.906 247.285 53.2765C246.045 56.6471 244.249 59.5725 241.896 62.0527C239.574 64.5011 236.728 66.4249 233.358 67.8239C229.987 69.223 226.203 69.9226 222.006 69.9226C217.809 69.9226 214.025 69.223 210.654 67.8239C207.284 66.4249 204.422 64.5011 202.069 62.0527C199.716 59.5725 197.904 56.6471 196.632 53.2765C195.392 49.906 194.771 46.2492 194.771 42.3063V0.762695H203.977V42.2586C203.977 45.1204 204.374 47.7437 205.169 50.1286C205.996 52.5134 207.173 54.5643 208.699 56.2814C210.257 57.9985 212.149 59.3499 214.375 60.3356C216.632 61.2895 219.176 61.7665 222.006 61.7665Z" fill="white"/>
<path d="M181.467 36.2493V62.4824C178.033 64.9626 174.361 66.8228 170.449 68.0629C166.57 69.2712 162.309 69.8753 157.667 69.8753C152.166 69.8753 147.205 69.0327 142.785 67.3474C138.366 65.6304 134.582 63.2455 131.434 60.193C128.318 57.1086 125.917 53.4201 124.232 49.1274C122.546 44.8347 121.704 40.1127 121.704 34.9615C121.704 29.7467 122.514 24.993 124.136 20.7003C125.79 16.4076 128.127 12.735 131.148 9.68239C134.168 6.59802 137.841 4.21319 142.165 2.52792C146.49 0.84264 151.323 0 156.665 0C159.368 0 161.88 0.206685 164.201 0.620055C166.522 1.00163 168.669 1.57399 170.64 2.33713C172.612 3.06847 174.44 3.97471 176.125 5.05583C177.811 6.10515 179.385 7.29756 180.847 8.63307L178.224 12.8304C177.811 13.4663 177.27 13.8797 176.602 14.0705C175.966 14.2295 175.251 14.0705 174.456 13.5935C173.693 13.1483 172.818 12.6078 171.833 11.9718C170.847 11.3359 169.639 10.7317 168.208 10.1594C166.809 9.5552 165.139 9.04643 163.2 8.63307C161.292 8.2197 159.018 8.01301 156.379 8.01301C152.531 8.01301 149.05 8.64897 145.933 9.92087C142.817 11.161 140.162 12.9576 137.968 15.3106C135.774 17.6318 134.089 20.4618 132.912 23.8005C131.736 27.1075 131.148 30.8278 131.148 34.9615C131.148 39.2542 131.752 43.1017 132.96 46.5041C134.2 49.8746 135.949 52.7523 138.207 55.1371C140.496 57.4902 143.262 59.2867 146.506 60.5268C149.749 61.7669 153.39 62.387 157.428 62.387C160.608 62.387 163.422 62.0372 165.871 61.3377C168.351 60.6063 170.767 59.6047 173.12 58.3328V43.3084H162.484C161.88 43.3084 161.387 43.1335 161.006 42.7837C160.656 42.434 160.481 42.0047 160.481 41.4959V36.2493H181.467Z" fill="white"/>
<path d="M99.4576 43.7372L88.7259 15.9302C88.4079 15.1034 88.074 14.1495 87.7242 13.0684C87.3745 11.9555 87.0406 10.779 86.7226 9.53885C86.0549 12.1145 85.3712 14.2608 84.6717 15.9779L73.9399 43.7372H99.4576ZM118.727 69.1117H111.572C110.746 69.1117 110.078 68.9051 109.569 68.4917C109.06 68.0783 108.679 67.5537 108.424 66.9177L102.033 50.4147H71.3643L64.973 66.9177C64.7822 67.4901 64.4165 67.9988 63.876 68.444C63.3354 68.8892 62.6677 69.1117 61.8727 69.1117H54.7183L82.0483 0.762695H91.3969L118.727 69.1117Z" fill="white"/>
<path d="M9.20542 30.7161H12.6873C13.8956 30.7161 14.8654 30.573 15.5967 30.2868C16.3281 29.9688 16.9958 29.4442 17.6 28.7128L40.3512 2.95673C40.9872 2.12999 41.6549 1.55763 42.3545 1.23966C43.054 0.921682 43.9126 0.762695 44.9301 0.762695H52.7523L26.71 30.1914C26.0741 30.9546 25.454 31.5905 24.8499 32.0993C24.2775 32.5762 23.6575 32.9737 22.9897 33.2917C23.8482 33.5779 24.6273 34.0071 25.3268 34.5795C26.0264 35.1201 26.71 35.8355 27.3778 36.7258L54.5648 69.1117H46.5518C45.9476 69.1117 45.4229 69.0799 44.9778 69.0163C44.5644 68.921 44.1987 68.7938 43.8808 68.6348C43.5628 68.444 43.2766 68.2373 43.0222 68.0147C42.7996 67.7603 42.5771 67.4742 42.3545 67.1562L18.7924 40.0169C18.1565 39.222 17.4728 38.6655 16.7415 38.3475C16.0101 37.9977 14.8972 37.8229 13.4027 37.8229H9.20542V69.1117H0V0.762695H9.20542V30.7161Z" fill="white"/>
</svg>
